<svg width="181" height="69" viewBox="0 0 181 69" fill="none" xmlns="http://www.w3.org/2000/svg">
<path d="M93.9665 0V5.06H175.908V63.94H93.9665V69H181V0H93.9665Z" fill="white"/>
<path d="M23.525 68.1168L29.6877 61.9933V39.56C29.6877 37.5581 29.2926 35.6543 28.5025 33.8486C27.752 32.043 26.7051 30.4729 25.3619 29.1382C24.0188 27.8036 22.4386 26.7438 20.6214 25.9587C18.8437 25.1737 16.9277 24.7811 14.8735 24.7811C12.8192 24.7811 10.8835 25.1737 9.0663 25.9587C7.24909 26.7438 5.6689 27.8036 4.32575 29.1382C2.98259 30.4729 1.91597 32.043 1.12588 33.8486C0.375293 35.6543 0 37.5581 0 39.56V40.5021C0 40.7769 0.0395046 41.0516 0.118514 41.3264C0.316036 43.1321 0.829596 44.8199 1.65919 46.3901C2.52829 47.9602 3.61467 49.3341 4.91832 50.5117C6.26147 51.6893 7.7824 52.6117 9.48109 53.279C11.1798 53.9464 12.9772 54.28 14.8735 54.28C15.466 54.28 16.0586 54.2604 16.6512 54.2211C17.2832 54.1819 17.8758 54.0641 18.4289 53.8678L17.066 47.921C16.2759 48.1565 15.545 48.2742 14.8735 48.2742C13.6883 48.2742 12.5624 48.0583 11.4958 47.6266C10.4292 47.1555 9.50085 46.5275 8.71075 45.7424C7.92066 44.9573 7.28859 44.0349 6.81454 42.975C6.37999 41.9152 6.16271 40.7769 6.16271 39.56C6.16271 38.3824 6.37999 37.2833 6.81454 36.2627C7.28859 35.2029 7.92066 34.2804 8.71075 33.4954C9.50085 32.7103 10.4292 32.1019 11.4958 31.6701C12.5624 31.199 13.6883 30.9635 14.8735 30.9635C16.0586 30.9635 17.1845 31.199 18.2511 31.6701C19.3177 32.1019 20.2263 32.7103 20.9769 33.4954C21.767 34.2804 22.3793 35.2029 22.8139 36.2627C23.2879 37.2833 23.525 38.3824 23.525 39.56V68.1168Z" fill="white"/>
<path d="M60.5892 45.2714C61.3793 43.4657 61.7546 41.5619 61.7151 39.56V24.84H55.5524V39.56C55.5524 40.7376 55.3153 41.8563 54.8413 42.9162C54.4067 43.9367 53.7944 44.8396 53.0043 45.6246C52.2537 46.4097 51.3451 47.0378 50.2785 47.5088C49.2514 47.9406 48.1255 48.1565 46.9009 48.1565C45.7157 48.1565 44.5898 47.9406 43.5232 47.5088C42.4961 47.0378 41.5875 46.4097 40.7974 45.6246C40.0468 44.8396 39.4542 43.9367 39.0197 42.9162C38.5851 41.8563 38.3679 40.7376 38.3679 39.56L38.4271 24.84H32.2052V39.56C32.1657 41.5619 32.5212 43.4657 33.2718 45.2714C34.0619 47.0378 35.1285 48.5883 36.4717 49.9229C37.8148 51.2182 39.3752 52.2585 41.1529 53.0435C42.9702 53.8286 44.8861 54.2407 46.9009 54.28H47.0194C49.0341 54.2407 50.9303 53.8286 52.708 53.0435C54.5252 52.2585 56.1054 51.2182 57.4486 49.9229C58.7917 48.5883 59.8386 47.0378 60.5892 45.2714Z" fill="white"/>
<path d="M64.8936 54.28H70.9971V24.84H64.8936V54.28Z" fill="white"/>
<path d="M64.8936 18.6576H70.9971V11.2387L64.8936 17.3622V18.6576Z" fill="white"/>
<path d="M92.5152 47.5677C91.5276 47.9602 90.4214 48.1565 89.1968 48.1565C88.0117 48.1565 86.8858 47.9406 85.8192 47.5088C84.792 47.0378 83.8834 46.4097 83.0934 45.6246C82.3033 44.8396 81.6712 43.9367 81.1971 42.9162C80.7626 41.8563 80.5453 40.7376 80.5453 39.56C80.5453 38.3824 80.7626 37.2637 81.1971 36.2038C81.6712 35.144 82.3033 34.2215 83.0934 33.4365C83.8834 32.6514 84.792 32.043 85.8192 31.6112C86.8858 31.1402 88.0117 30.9046 89.1968 30.9046C90.4214 30.9046 91.5276 31.1205 92.5152 31.5523C93.5028 31.9449 94.3917 32.4944 95.1817 33.201L99.626 28.9616L99.5075 28.8438C98.2038 27.5877 96.6632 26.6064 94.8855 25.8998C93.1078 25.154 91.2115 24.7811 89.1968 24.7811C87.1821 24.7811 85.2661 25.1737 83.4489 25.9587C81.6712 26.7045 80.1108 27.7447 78.7676 29.0794C77.4245 30.414 76.3578 31.9841 75.5677 33.7898C74.7776 35.5954 74.3826 37.5188 74.3826 39.56C74.3826 41.6012 74.7776 43.5246 75.5677 45.3302C76.3578 47.0966 77.4245 48.6472 78.7676 49.9818C80.1108 51.3164 81.6712 52.3762 83.4489 53.1613C85.2661 53.9071 87.1821 54.28 89.1968 54.28C91.2115 54.28 93.1078 53.9267 94.8855 53.2202C96.6632 52.4743 98.2038 51.4734 99.5075 50.2173L99.626 50.0995L95.1817 45.8602C94.3917 46.5667 93.5028 47.1359 92.5152 47.5677Z" fill="white"/>
<path d="M126.089 40.2666C124.904 38.1076 123.304 36.3412 121.289 34.9674C122.83 33.6327 124.055 32.0234 124.963 30.1392C125.912 28.2158 126.386 26.1354 126.386 23.8979H120.223C120.223 25.0755 119.986 26.1942 119.512 27.2541C119.077 28.3139 118.465 29.2364 117.675 30.0214C116.885 30.7673 115.956 31.3757 114.89 31.8467C113.863 32.2785 112.756 32.4944 111.571 32.4944H109.26V11.0621L103.216 17.1856V54.28H109.26V38.6768H112.934C114.159 38.6768 115.305 38.9123 116.371 39.3834C117.438 39.8151 118.366 40.4236 119.156 41.2086C119.946 41.9937 120.559 42.9162 120.993 43.976C121.467 44.9966 121.704 46.0957 121.704 47.2733V54.28H127.808V47.2733C127.887 44.7611 127.314 42.4255 126.089 40.2666Z" fill="white"/>
<path d="M130.053 54.28H136.156V24.84H130.053V54.28Z" fill="white"/>
<path d="M130.053 18.6576H136.156V11.2387L130.053 17.3622V18.6576Z" fill="white"/>
<path d="M157.734 47.5088C156.707 47.9406 155.601 48.1565 154.415 48.1565C153.23 48.1565 152.104 47.9406 151.038 47.5088C150.011 47.0378 149.102 46.4097 148.312 45.6246C147.522 44.8396 146.89 43.9367 146.416 42.9162C145.981 41.8563 145.764 40.7376 145.764 39.56C145.764 38.3824 145.981 37.2833 146.416 36.2627C146.89 35.2029 147.522 34.2804 148.312 33.4954C149.102 32.7103 150.011 32.1019 151.038 31.6701C152.104 31.199 153.23 30.9635 154.415 30.9635C155.561 30.9635 156.647 31.1794 157.675 31.6112C158.702 32.0037 159.591 32.5336 160.341 33.201L154.001 39.6778H162.178L168.815 33.1421L164.785 29.0205L164.667 28.9027C163.324 27.6466 161.783 26.6653 160.045 25.9587C158.307 25.2129 156.43 24.84 154.415 24.84C152.361 24.84 150.425 25.2325 148.608 26.0176C146.831 26.7634 145.27 27.8036 143.927 29.1382C142.584 30.4729 141.517 32.043 140.727 33.8486C139.977 35.615 139.601 37.5188 139.601 39.56C139.601 41.6012 139.977 43.5246 140.727 45.3302C141.517 47.0966 142.584 48.6472 143.927 49.9818C145.27 51.3164 146.831 52.3762 148.608 53.1613C150.425 53.9071 152.361 54.28 154.415 54.28C156.47 54.28 158.386 53.9071 160.163 53.1613C161.981 52.3762 163.561 51.3164 164.904 49.9818C166.247 48.6472 167.294 47.0966 168.045 45.3302C168.835 43.5246 169.23 41.6012 169.23 39.56H163.067C163.067 40.7769 162.83 41.9152 162.356 42.975C161.921 43.9956 161.309 44.8985 160.519 45.6835C159.729 46.4293 158.8 47.0378 157.734 47.5088Z" fill="white"/>
</svg>
